<?xml version="1.0" encoding="iso-8859-1"?><!-- Generator: Adobe Illustrator 22.1.0, SVG Export Plug-In . SVG Version: 6.00 Build 0)  --><svg xmlns="http://www.w3.org/2000/svg" xmlns:xlink="http://www.w3.org/1999/xlink" viewBox="0 0 50 50" width="50px" height="50px"><path d="M46.863,12.246c-0.134-0.229-0.353-0.396-0.609-0.463l-33.25-8.75c-0.537-0.142-1.081,0.179-1.222,0.712l-8.75,33.248c-0.067,0.257-0.03,0.529,0.104,0.759s0.353,0.396,0.609,0.463l33.25,8.75c0.085,0.022,0.171,0.033,0.255,0.033c0.443,0,0.849-0.297,0.967-0.745l8.75-33.248C47.034,12.748,46.997,12.476,46.863,12.246z M28.5,31L19,28.5l2.5-9.5L31,21.5L28.5,31z"/><rect x="6.99" y="6.988" transform="matrix(0.2545 -0.9671 0.9671 0.2545 -5.5384 42.8135)" style="fill:none;stroke:#000000;stroke-width:2;stroke-linecap:round;stroke-linejoin:round;stroke-miterlimit:10;" width="36.019" height="36.021"/></svg>